<svg fill="none" viewBox="0 0 48 48" width="16" height="16" aria-hidden="true" role="img"><g clip-path="url(#clip-jira)"><path fill="#2684FF" d="M40.496 6H23.16a7.826 7.826 0 0 0 7.826 7.826h3.193v3.083a7.826 7.826 0 0 0 7.82 7.82V7.504C42 6.674 41.328 6 40.497 6"></path><path fill="url(#paint-jira)" d="M31.918 14.637H14.582a7.826 7.826 0 0 0 7.82 7.82h3.194v3.093a7.826 7.826 0 0 0 7.826 7.816V16.141c0-.83-.674-1.504-1.504-1.504"></path><path fill="url(#paint1_linear_3969_3069)" d="M23.336 23.27H6a7.826 7.826 0 0 0 7.826 7.825h3.203v3.083a7.826 7.826 0 0 0 7.81 7.82V24.775c0-.831-.673-1.505-1.503-1.505"></path></g><defs><linearGradient id="paint-jira" x1="29.226" x2="21.896" y1="11.001" y2="18.649" gradientUnits="userSpaceOnUse"><stop offset=".18" stop-color="#0052CC"></stop><stop offset="1" stop-color="#2684FF"></stop></linearGradient><linearGradient id="paint1_linear_3969_3069" x1="554.691" x2="239.798" y1="514.247" y2="825.88" gradientUnits="userSpaceOnUse"><stop offset=".18" stop-color="#0052CC"></stop><stop offset="1" stop-color="#2684FF"></stop></linearGradient><clipPath id="clip-jira"><path fill="#fff" d="M0 0h48v48H0z"></path></clipPath></defs></svg>