<svg fill="none" viewBox="0 0 48 48" width="16" height="16" aria-hidden="true" role="img"><g clip-path="url(#clip-make)"><path fill="url(#paint-make)" d="M13.976 8.073.122 35.637a1.154 1.154 0 0 0 .514 1.548l7.466 3.752a1.15 1.15 0 0 0 1.55-.512l13.852-27.564a1.15 1.15 0 0 0-.514-1.55l-7.466-3.75a1.15 1.15 0 0 0-1.548.514z"></path><path fill="url(#paint1_linear_7388_16756)" d="M38.49 7.664h8.358c.636 0 1.154.52 1.154 1.154v30.85a1.156 1.156 0 0 1-1.154 1.156H38.49a1.157 1.157 0 0 1-1.154-1.156V8.82c0-.636.518-1.156 1.154-1.156"></path><path fill="url(#paint2_linear_7388_16756)" d="m25.632 8.173-5.93 30.046a1.15 1.15 0 0 0 .906 1.354l8.19 1.652c.628.126 1.24-.28 1.362-.908l5.928-30.044a1.154 1.154 0 0 0-.906-1.354L26.99 7.265a1.154 1.154 0 0 0-1.358.908"></path></g><defs><linearGradient id="paint-make" x1="2.998" x2="23.998" y1="39.001" y2=".001" gradientUnits="userSpaceOnUse"><stop stop-color="#F0F"></stop><stop offset=".17" stop-color="#E90CF9"></stop><stop offset=".54" stop-color="#C023ED"></stop><stop offset=".73" stop-color="#B02DE9"></stop><stop offset="1" stop-color="#B02DE9"></stop></linearGradient><linearGradient id="paint1_linear_7388_16756" x1="0" x2="48" y1="48" y2="0" gradientUnits="userSpaceOnUse"><stop stop-color="#B02DE9"></stop><stop offset=".02" stop-color="#B02DE9"></stop><stop offset=".8" stop-color="#6D00CC"></stop><stop offset="1" stop-color="#6D00CC"></stop></linearGradient><linearGradient id="paint2_linear_7388_16756" x1=".002" x2="48.002" y1="48.003" y2=".003" gradientUnits="userSpaceOnUse"><stop stop-color="#F0F"></stop><stop offset=".02" stop-color="#F0F"></stop><stop offset=".09" stop-color="#E90CF9"></stop><stop offset=".23" stop-color="#C023ED"></stop><stop offset=".3" stop-color="#B02DE9"></stop><stop offset=".42" stop-color="#A42BE3"></stop><stop offset=".63" stop-color="#8626D5"></stop><stop offset=".85" stop-color="#6021C3"></stop><stop offset="1" stop-color="#6021C3"></stop></linearGradient><clipPath id="clip-make"><path fill="#fff" d="M0 0h48v48H0z"></path></clipPath></defs></svg>